PathFileType	4	(X/Y/Z)	Patient4_TMGait_0pt5_01_left_06.trc.trc
DataRate	CameraRate	NumFrames	NumMarkers	Units	OrigDataRate	OrigDataStartFrame	OrigNumFrames
71.065989847716	71.065989847716	6	33	mm	71.065989847716	71	       141
Frame#	Time	L.ASIS			Sacral			L.Shoulder			Chest			R.Shoulder			Neck			R.ASIS			R.Thigh.Superior			R.Thigh.Lateral			R.Thigh.Inferior			R.Patella			L.Thigh.Superior			L.Thigh.Lateral			L.Thigh.Inferior			L.Patella			L.Shank.Superior			L.Shank.Lateral			L.Shank.Inferior			R.Shank.Superior			R.Shank.Lateral			R.Shank.Inferior			R.Heel			R.Midfoot.Superior			R.Midfoot.Lateral			R.Toe			L.Heel			L.Midfoot.Lateral			L.Midfoot.Superior			L.Toe			L.Elbow			L.Wrist			R.Elbow			R.Wrist			
		X1	Y1	Z1	X2	Y2	Z2	X3	Y3	Z3	X4	Y4	Z4	X5	Y5	Z5	X6	Y6	Z6	X7	Y7	Z7	X8	Y8	Z8	X9	Y9	Z9	X10	Y10	Z10	X11	Y11	Z11	X12	Y12	Z12	X13	Y13	Z13	X14	Y14	Z14	X15	Y15	Z15	X16	Y16	Z16	X17	Y17	Z17	X18	Y18	Z18	X19	Y19	Z19	X20	Y20	Z20	X21	Y21	Z21	X22	Y22	Z22	X23	Y23	Z23	X24	Y24	Z24	X25	Y25	Z25	X26	Y26	Z26	X27	Y27	Z27	X28	Y28	Z28	X29	Y29	Z29	X30	Y30	Z30	X31	Y31	Z31	X32	Y32	Z32	X33	Y33	Z33	

71	8.965000000000	689.584856955054	959.294392647252	303.643367535536	461.151791741250	1001.030392646223	434.934580236875	657.972906893037	1433.450162158903	275.409002460502	733.284450631144	1364.208137686016	450.785125887729	623.196143188898	1437.644369420869	610.363496894570	630.510552550771	1494.570715955862	423.161157703114	673.226124263554	942.765203815694	578.923347107979	743.102858314076	761.008879126229	555.377032446668	688.353072814074	641.691888721790	621.659430561617	777.340267282017	599.659163620633	544.458026801946	805.959780743143	516.902484485685	558.184890638626	701.046356428494	734.267500285060	335.728498934179	595.640935333529	634.021161237960	267.207213734638	654.329953076192	544.597764001713	337.725476348557	640.387006187822	476.270751469787	348.565414530790	609.242491783486	408.574422536728	339.416559676775	512.977571422858	302.611481531717	283.235167343184	544.319704233760	189.430242156262	361.661737566600	790.838812900400	430.127102384961	567.151484027784	738.639666042618	316.776081477820	630.855081992824	807.251897584682	230.653447169475	578.072673204270	711.822624683912	46.336396701367	549.389723650386	875.378070554486	114.659517241531	587.863667734538	796.208462634164	42.044584148749	623.087016840017	999.572867193208	74.463444912531	614.387312145625	399.715541078497	39.325662645408	395.659575598902	479.354190395660	34.696560276376	321.115513662412	561.650412136344	94.731558130850	352.601024156951	691.002786427600	39.862279973295	334.789194212974	723.206917084165	1092.883768072358	144.062760525685	966.090201150020	1009.434297283613	174.996791363630	472.929861706654	1123.085297154075	698.774183470042	446.377032035945	863.504611686855	710.262323308821	
72	8.979071428571	689.783291647660	958.434927740612	305.149329703940	461.762456681905	1000.322253620224	437.307278328923	657.547762193718	1432.507254612165	276.909806219306	733.648015896856	1363.490500508608	452.047940285256	623.982318294982	1436.865594563172	611.900591407831	630.497454495923	1493.719460649315	424.800550820041	674.423699200823	941.654083852142	580.397552318984	743.259063678940	758.748886857173	556.757614938109	686.664197527184	639.555336080830	622.190403714204	775.262148074091	597.289708282369	544.897979931768	802.514363821391	514.646652128977	557.558328776120	699.477926460184	732.952862353659	336.602139938194	592.643185506374	633.788514711699	268.308165449707	650.690601253328	543.679375030569	338.336617797001	636.179477220863	475.333097434783	349.061517493070	604.476259190075	408.062540726211	339.777848620291	507.037930944511	302.965708736269	283.594675147837	537.977392572132	189.317524482768	361.647076903042	787.534208777568	427.486008072689	566.674330330770	735.287479634121	314.378850815476	630.477996583992	803.025482261381	228.137053490014	577.088543177115	706.424899171525	45.375991611498	549.161071410825	870.866681978207	111.917910273207	586.074700600691	791.197678323172	40.754322010221	622.323392729239	994.772003387421	70.626826375163	611.696244053234	392.649392568713	39.613301243773	395.577821967009	472.280677157170	34.831726304003	321.117994612955	554.614708347395	94.772684805852	352.537567759220	683.866870280316	39.712831277393	334.755292811041	721.367284504287	1091.018529892985	146.610910406676	962.834441178170	1002.243354325303	176.659676211495	477.183124370797	1120.685704735594	701.583165890454	455.756343004738	860.550226150257	712.817059551116	
73	8.993142857143	690.116139144903	957.592798405561	306.759445493627	462.488204832599	999.557213903111	439.943447573795	656.938574054765	1431.592207177833	278.614197057932	733.997346983198	1362.842077689079	453.473912211724	624.738729878763	1436.043117485910	613.655984985347	630.428301892039	1492.868101446299	426.669820838666	675.920347101001	940.555116022554	581.935045338630	744.078426180381	756.679431346157	557.927832672269	685.791910364374	637.624811106571	622.565129097663	773.945313564668	595.197438537620	545.104564844262	799.715215241257	512.361724423872	556.800773699028	698.199687104581	731.676437984966	337.502925647743	589.904701947688	633.564800720079	269.577948967909	647.413524969021	542.772222790993	339.056583843604	632.370407236361	474.343460628657	349.698751812242	600.015130852093	407.532340899510	340.274931291367	501.308528973641	303.425034497154	284.078754318247	531.726580664910	189.255010589389	361.690658371362	784.460876787571	424.691878389126	566.077967813122	731.562924712206	312.117412640295	630.025021355246	797.774572183169	225.357292502014	575.956292075810	698.868069022055	44.677406747312	548.938561473288	864.504451466976	108.917396535336	584.253421126919	783.999999558228	39.579705044019	621.612649808141	987.976782673087	66.076409812677	609.048480819917	385.601531250906	40.072100542110	395.488955687798	465.230453522796	35.074329847131	321.125852045688	547.612230957947	94.879414920323	352.485124941294	676.733052241311	39.533459922163	334.713297471717	719.051499005105	1089.061568125919	149.339590554937	958.741639384804	994.071004227940	178.175040501179	481.862965195820	1118.082798539830	704.757945030976	466.579414533026	857.397662924563	715.732082253796	
74	9.007214285714	690.557538638524	956.811120402621	308.478383702148	463.301877860609	998.797199475035	442.817206795648	656.192115750538	1430.742809742781	280.512167382084	734.355695244227	1362.288906823148	455.057671235552	625.505512966223	1435.234354902929	615.624970455149	630.365847028971	1492.065787578172	428.754333379272	677.651618825137	939.524467313346	583.553297144861	745.428689993962	754.835389515667	558.898680011161	685.650288778453	635.956058246852	622.834691137925	773.294949483637	593.418679466520	545.108185163856	797.523643128638	510.134556476846	555.957290179471	697.222935273678	730.502032793687	338.439139729976	587.478902674177	633.377287961194	271.018980025859	644.587454327791	541.913967834890	339.878788945469	629.075339460829	473.319771085814	350.450102789725	595.939428995953	406.997775370795	340.896762698511	495.848347234705	304.032325534431	284.689006946615	525.604212383750	189.271703357245	361.777450259018	781.694249175669	421.891163322387	565.415291618538	727.750635609893	310.035949638596	629.571229135709	791.941280132042	222.467448182966	574.749790356741	689.939618450794	44.126542117677	548.756879510498	856.914501865000	105.907916355072	582.516511901333	775.397616162565	38.538248349232	621.008620853066	979.901146018589	61.316032161492	606.598727666257	378.582056763615	40.762286172762	395.394524924906	458.213695859744	35.445938366508	321.139455869976	540.673356062972	95.065762695177	352.427266948102	669.615185280330	39.324167612603	334.659938464546	716.287833580602	1087.055688763211	152.250573473104	953.730482443612	984.981818632349	179.534987680160	486.892775387341	1115.412369745033	708.252912579236	478.731362325905	854.251480744310	718.999353485973	
75	9.021285714286	691.075159681459	956.141548984520	310.313959996485	464.178878798503	998.113611040164	445.900310263897	655.363673359947	1430.007805376717	282.590136143155	734.744475716556	1361.864323353243	456.790842263283	626.321572543230	1434.507976612133	617.795625196799	630.369934481967	1491.371388815999	431.033290008053	679.547203269898	938.630837773032	585.277475214832	747.155009348866	753.262066523647	559.698670257610	686.129112268592	634.601465116882	623.061865576545	773.188058035264	591.983094648119	544.954933784252	795.871321174982	508.051856632020	555.086491615135	696.548073567081	729.498038085417	339.429221946821	585.419151171571	633.256095834275	272.628677442660	642.302914020467	541.146154570347	340.790794103454	626.411970156232	472.284203953541	351.271560577492	592.330990666807	406.477406243579	341.618039137396	490.716373339286	304.833918577894	285.419281259279	519.654421082172	189.399321982357	361.883062143942	779.270057309519	419.232001784470	564.745310620798	724.082939435101	308.194800769348	629.185682813751	785.915051891223	219.641882038500	573.545415868464	680.369428279228	43.662022993492	548.636393776023	848.671922495525	103.126927214040	580.965079876273	766.111640708801	37.661242547211	620.544464658679	971.191538024565	56.802980647153	604.478807022133	371.603253827522	41.744761634549	395.295441968605	451.241184992689	35.961802021025	321.157809405071	533.836254377487	95.339216252222	352.340376464722	662.530153254316	39.091100003176	334.593434667523	713.114544574733	1085.062702697425	155.347964591632	947.702712968329	975.054253318460	180.741336221140	492.213710519115	1112.810855729655	712.023673208354	492.111684957230	851.333931137077	722.608005946886	
76	9.035357142857	691.632694777205	955.637785305867	312.276219356263	465.099678659696	997.577843105871	449.165954113182	654.511391991141	1429.439651626420	284.831426092163	735.180357045583	1361.604255698907	458.662303909543	627.219312243453	1433.936264689300	620.148937522440	630.489165855712	1490.845744097664	433.480246913547	681.539394709683	937.945669292755	587.137104447979	749.097528912880	752.005146775369	560.373640466527	687.098526037900	633.598931085396	623.314993225830	773.482793384728	590.904414287835	544.706995066866	794.662087737029	506.187009617547	554.255810664033	696.167359644007	728.729469210746	340.497979764629	583.777093942089	633.228970130499	274.397368015012	640.649366591423	540.508377018249	341.772099276255	624.494283728026	471.259435379173	352.102188045967	589.271025585890	405.991457227749	342.398641899206	485.971755789904	305.874728913256	286.254530931807	513.928821318085	189.669181005294	361.974331036350	777.177114968250	416.842103546882	564.126683902383	720.710684667974	306.652456009970	628.923337202546	779.992200190469	217.044645438709	572.413394911971	670.755902228787	43.261647529743	548.583374176576	840.249702263744	100.762677016724	579.672552402751	756.731918508299	36.976432126787	620.231465258364	962.369662817976	52.889812601939	602.780223108516	364.681130408767	43.078639882402	395.190051336940	444.324494461662	36.630182409487	321.177584826246	527.145956900714	95.697819639499	352.194725275039	655.496469792811	38.845550315641	334.514338362006	709.578505155097	1083.157717590458	158.635290906759	940.550007494258	964.386531571371	181.805418211743	497.780719507780	1110.407335647114	716.032443051453	506.635799596831	848.875648217196	726.544024578041	
